<svg width="12" height="12" viewBox="0 0 12 12" fill="none" xmlns="http://www.w3.org/2000/svg">
<path d="M6.00008 11.8333C2.77833 11.8333 0.166748 9.22175 0.166748 6C0.166748 2.77826 2.77833 0.166672 6.00008 0.166672C9.22183 0.166672 11.8334 2.77826 11.8334 6C11.8334 9.22175 9.22183 11.8333 6.00008 11.8333ZM6.00008 10.6667C7.23776 10.6667 8.42474 10.175 9.29991 9.29984C10.1751 8.42467 10.6667 7.23768 10.6667 6C10.6667 4.76233 10.1751 3.57534 9.29991 2.70017C8.42474 1.825 7.23776 1.33334 6.00008 1.33334C4.7624 1.33334 3.57542 1.825 2.70025 2.70017C1.82508 3.57534 1.33341 4.76233 1.33341 6C1.33341 7.23768 1.82508 8.42467 2.70025 9.29984C3.57542 10.175 4.7624 10.6667 6.00008 10.6667V10.6667ZM6.58341 6H8.91675V7.16667H5.41675V3.08334H6.58341V6Z" fill="#4E4B66"/>
</svg>
