<svg width="19" height="22" viewBox="0 0 19 22" fill="none" xmlns="http://www.w3.org/2000/svg">
<path d="M11.12 16.023L6.92096 13.733C6.37276 14.3191 5.66095 14.7267 4.87803 14.9029C4.09512 15.0791 3.27731 15.0157 2.53088 14.7211C1.78445 14.4264 1.14392 13.914 0.69253 13.2505C0.241137 12.587 -0.000244141 11.803 -0.000244141 11.0005C-0.000244141 10.198 0.241137 9.41408 0.69253 8.75058C1.14392 8.08707 1.78445 7.57467 2.53088 7.27998C3.27731 6.98529 4.09512 6.92193 4.87803 7.09813C5.66095 7.27434 6.37276 7.68196 6.92096 8.26802L11.121 5.97802C10.8825 5.03409 10.9965 4.03561 11.4416 3.16972C11.8867 2.30384 12.6323 1.63 13.5386 1.27452C14.445 0.919042 15.4499 0.906325 16.3649 1.23875C17.28 1.57118 18.0424 2.22594 18.5093 3.08028C18.9761 3.93463 19.1153 4.92991 18.9009 5.87957C18.6864 6.82922 18.1329 7.66806 17.3442 8.23883C16.5555 8.8096 15.5857 9.07313 14.6166 8.98001C13.6475 8.8869 12.7456 8.44353 12.08 7.73302L7.87996 10.023C8.04116 10.6644 8.04116 11.3357 7.87996 11.977L12.079 14.267C12.7446 13.5565 13.6464 13.1131 14.6156 13.02C15.5847 12.9269 16.5545 13.1904 17.3432 13.7612C18.1319 14.332 18.6854 15.1708 18.8999 16.1205C19.1143 17.0701 18.9751 18.0654 18.5083 18.9198C18.0414 19.7741 17.279 20.4289 16.3639 20.7613C15.4489 21.0937 14.444 21.081 13.5376 20.7255C12.6313 20.37 11.8857 19.6962 11.4406 18.8303C10.9955 17.9644 10.8815 16.9659 11.12 16.022V16.023ZM3.99996 13C4.5304 13 5.0391 12.7893 5.41418 12.4142C5.78925 12.0392 5.99996 11.5305 5.99996 11C5.99996 10.4696 5.78925 9.96088 5.41418 9.58581C5.0391 9.21073 4.5304 9.00002 3.99996 9.00002C3.46953 9.00002 2.96082 9.21073 2.58575 9.58581C2.21068 9.96088 1.99996 10.4696 1.99996 11C1.99996 11.5305 2.21068 12.0392 2.58575 12.4142C2.96082 12.7893 3.46953 13 3.99996 13ZM15 7.00002C15.5304 7.00002 16.0391 6.78931 16.4142 6.41423C16.7892 6.03916 17 5.53045 17 5.00002C17 4.46959 16.7892 3.96088 16.4142 3.58581C16.0391 3.21073 15.5304 3.00002 15 3.00002C14.4695 3.00002 13.9608 3.21073 13.5857 3.58581C13.2107 3.96088 13 4.46959 13 5.00002C13 5.53045 13.2107 6.03916 13.5857 6.41423C13.9608 6.78931 14.4695 7.00002 15 7.00002ZM15 19C15.5304 19 16.0391 18.7893 16.4142 18.4142C16.7892 18.0392 17 17.5305 17 17C17 16.4696 16.7892 15.9609 16.4142 15.5858C16.0391 15.2107 15.5304 15 15 15C14.4695 15 13.9608 15.2107 13.5857 15.5858C13.2107 15.9609 13 16.4696 13 17C13 17.5305 13.2107 18.0392 13.5857 18.4142C13.9608 18.7893 14.4695 19 15 19Z" fill="#4E4B66"/>
</svg>
